<?xml version="1.0" standalone="no"?>
<!DOCTYPE svg PUBLIC "-//W3C//DTD SVG 1.1//EN" "http://www.w3.org/Graphics/SVG/1.1/DTD/svg11.dtd" >
<svg xmlns="http://www.w3.org/2000/svg" xmlns:xlink="http://www.w3.org/1999/xlink" version="1.1">
<metadata></metadata>
<defs>
<font id="aqua_grotesqueregular" horiz-adv-x="874" >
<font-face units-per-em="2048" ascent="1536" descent="-512" />
<missing-glyph horiz-adv-x="1024" />
<glyph horiz-adv-x="0" />
<glyph unicode="&#xd;" horiz-adv-x="1024" />
<glyph horiz-adv-x="0" />
<glyph horiz-adv-x="0" />
<glyph unicode=" "  horiz-adv-x="1024" />
<glyph unicode="&#x09;" horiz-adv-x="1024" />
<glyph unicode="&#xa0;" horiz-adv-x="1024" />
<glyph unicode="!" horiz-adv-x="540" d="M162 -4v217h217v-217h-217zM162 305v1198h217v-1198h-217z" />
<glyph unicode="-" d="M162 426v227h551v-227h-551z" />
<glyph unicode="." horiz-adv-x="540" d="M162 109q0 45 31.5 76.5t76.5 31.5t77 -31.5t32 -76.5t-32 -77t-77 -32t-76.5 31.5t-31.5 77.5z" />
<glyph unicode="/" horiz-adv-x="1173" d="M162 2l604 1499h246l-604 -1499h-246z" />
<glyph unicode="0" horiz-adv-x="1456" d="M162 750q0 131 29.5 265t96 242.5t174 176t265.5 67.5q156 0 264.5 -67.5t176 -176t97 -242.5t29.5 -265q0 -133 -29.5 -266.5t-97 -242t-176 -176t-264.5 -67.5q-158 0 -265.5 67.5t-174 176t-96 241.5t-29.5 267zM377 750q0 -115 17.5 -217.5t57.5 -181.5t107.5 -125 t167.5 -46t168 46t107.5 125t57 181.5t17.5 217.5q0 113 -17.5 216t-57 182t-107.5 125t-168 46t-167.5 -46t-107.5 -125t-57.5 -182.5t-17.5 -215.5z" />
<glyph unicode="1" horiz-adv-x="749" d="M162 1317v184h426v-1501h-211v1317h-215z" />
<glyph unicode="2" horiz-adv-x="1284" d="M162 0l471 623q63 82 115 149q20 29 41.5 56.5t38 51t27.5 38t13 18.5q35 59 35 127q0 53 -20.5 100t-56 82t-83 55.5t-100.5 20.5t-100 -20.5t-82 -55.5t-55.5 -82t-20.5 -100h-213q0 90 38 171t102.5 141.5t150.5 95t184 34.5t184.5 -34.5t151 -95t102 -141.5 t37.5 -171q0 -96 -29.5 -162.5t-86.5 -138.5l-455 -580h561v-182h-950z" />
<glyph unicode="3" horiz-adv-x="1320" d="M162 442h192h6q0 -25 7 -45q16 -49 47.5 -90t74.5 -69q78 -49 170 -50q63 0 121 25t100 65.5t66.5 97t24.5 122.5q0 63 -24.5 120.5t-66.5 99.5t-99.5 66.5t-121.5 24.5q-70 0 -139 -33l80 180l18 41l144 326h-518v178h813l-240 -528q66 -23 119 -58q102 -68 162.5 -177 t60.5 -240q0 -104 -39 -195.5t-106.5 -159t-158.5 -106.5t-196 -39q-141 0 -262 74q-96 59 -158.5 155.5t-76.5 214.5z" />
<glyph unicode="4" horiz-adv-x="1470" d="M162 156l966 1343v-1161h181v-182h-181v-160h-206v160h-760zM528 338h394v561z" />
<glyph unicode="5" horiz-adv-x="1286" d="M162 156l119 139q53 -53 130.5 -83t149.5 -30q74 0 136.5 27t108.5 73t72.5 109.5t26.5 134.5q0 72 -29.5 134.5t-80 109.5t-116 73.5t-136.5 26.5q-92 0 -154.5 -27.5t-116.5 -72.5l80 731h695v-180h-541l-31 -272q20 6 41 7t45 1q117 0 219.5 -42t179 -114t120.5 -168 t44 -207q0 -109 -41 -205t-115.5 -167.5t-178 -113.5t-228.5 -42q-129 0 -228.5 44t-170.5 114z" />
<glyph unicode="6" horiz-adv-x="1277" d="M162 463q0 74 20.5 139.5t59.5 122.5l243 362l275 412h2h74h161l-366 -555l-2 2l-8 -12h16q100 0 187 -37t151.5 -101.5t102.5 -149.5t38 -183q0 -96 -38 -180t-102.5 -147.5t-151.5 -100.5t-187 -37q-98 0 -185 37t-151.5 100.5t-101.5 147.5t-37 180zM381 465 q0 -59 20.5 -109.5t56.5 -87.5t83 -57.5t100 -20.5t99 20.5t81 57.5t55.5 87.5t20.5 109.5t-20.5 109.5t-55.5 87t-81 58t-99 21.5t-100 -21.5t-83 -58t-56.5 -87t-20.5 -109.5z" />
<glyph unicode="7" horiz-adv-x="1341" d="M162 1319v182h799h219l-772 -1501h-2h-222l70 135l606 1184h-698z" />
<glyph unicode="8" horiz-adv-x="1251" d="M162 428q0 111 57 204t150 152q-72 53 -114 135t-42 181q0 82 31.5 155.5t88 128t132.5 86t162 31.5t161.5 -31.5t131 -86t88 -128t32.5 -155.5q0 -98 -43 -180t-114 -136q92 -59 149.5 -152t57.5 -204q0 -88 -37 -166t-99.5 -135t-147.5 -91t-179 -34q-96 0 -181.5 34 t-147.5 91t-99 135t-37 166zM377 436q0 -53 19.5 -97t53 -77t78.5 -51t99 -18q51 0 96 18t79 51t53 77t19 97q0 51 -19 96.5t-53 79t-79 52t-96 18.5q-53 0 -98.5 -18.5t-79 -52t-53 -79t-19.5 -96.5zM416 1096q0 -94 59.5 -154.5t151.5 -60.5q90 0 150.5 60t60.5 155 q0 96 -60.5 156.5t-150.5 60.5q-92 0 -151.5 -60.5t-59.5 -156.5z" />
<glyph unicode="9" horiz-adv-x="1277" d="M162 1036q0 94 38 179t102.5 148.5t151.5 100.5t187 37q98 0 184 -37t150.5 -100.5t102.5 -148.5t38 -179q0 -74 -21.5 -139.5t-58.5 -122.5l-243 -362l-275 -412h-2h-74h-161l366 555h2l6 10h-14q-100 0 -187 37t-151.5 101.5t-102.5 149.5t-38 183zM381 1034 q0 -59 20.5 -109.5t55.5 -87t81 -58t99 -21.5t100 21.5t83 58t56.5 87t20.5 109.5q0 57 -20.5 107.5t-56.5 87.5t-83 58.5t-100 21.5t-99 -21.5t-81 -58.5t-55.5 -87t-20.5 -108z" />
<glyph unicode="&#x3c;" horiz-adv-x="968" d="M162 537l151 151l320 320l22 22l152 -149l-174 -174l-168 -170l168 -168l174 -174l-152 -152l-22 23l-320 319z" />
<glyph unicode="&#x3e;" horiz-adv-x="968" d="M162 195l174 174l168 168l-168 170l-174 174l151 149l23 -22l319 -320l152 -151l-152 -152l-319 -319l-23 -23z" />
<glyph unicode="?" horiz-adv-x="1255" d="M162 1260q63 111 180 179t258 68q102 0 192.5 -35.5t157 -99t105.5 -147.5t39 -178q0 -111 -51.5 -207.5t-143.5 -161.5l-8 -6q-72 -47 -154 -68v-264h-219v229v166v41q25 0 49 2q23 2 48.5 5t52.5 10q2 0 3 1t3 1q31 8 63 24q61 35 100.5 95.5t39.5 132.5 q0 53 -21.5 100t-59.5 83t-89.5 56.5t-108.5 20.5q-92 0 -165 -49.5t-101 -129.5zM518 109q0 45 32 76.5t79 31.5q45 0 76.5 -31.5t31.5 -76.5q0 -47 -31.5 -78t-76.5 -31q-47 0 -79 30.5t-32 78.5z" />
<glyph unicode="A" horiz-adv-x="1548" d="M162 2l612 1501l612 -1501h-223l-45 119h-686l-47 -119h-223zM506 311h536l-268 688z" />
<glyph unicode="B" horiz-adv-x="1345" d="M162 0v1501h573q82 0 156 -31.5t129 -87t87 -129t32 -157.5q0 -51 -13.5 -95.5t-35 -81t-49 -68t-56.5 -56.5q90 -49 144.5 -142.5t54.5 -212.5q0 -90 -35 -170t-94.5 -140t-139 -95t-170.5 -35h-583zM381 193h328q51 0 96 20t79 54t53 79t19 94q0 51 -19 96.5t-53 79 t-79 53t-96 19.5h-328v-495zM381 881h317q45 0 84 16t68 46t45 69t16 82q0 92 -61.5 153.5t-151.5 61.5h-317v-428z" />
<glyph unicode="C" horiz-adv-x="1662" d="M162 750q0 156 58.5 292t158.5 237t235.5 160.5t288.5 59.5q186 0 341 -82t257 -221l-178 -133q-70 104 -179.5 166.5t-240.5 62.5q-106 0 -199.5 -43t-163 -116.5t-110.5 -172t-41 -210.5q0 -113 41 -211.5t110.5 -172t163 -116.5t199.5 -43q131 0 240.5 62.5 t179.5 166.5l178 -133q-102 -139 -256.5 -221t-341.5 -82q-154 0 -289 59.5t-235 161t-158.5 237.5t-58.5 292z" />
<glyph unicode="D" horiz-adv-x="1574" d="M162 0v1501h524q152 0 284 -59.5t230 -161.5t155.5 -238.5t57.5 -291.5q0 -156 -55 -292t-152.5 -237.5t-230.5 -161t-289 -59.5h-524zM381 193h281q115 0 211 44t165.5 119.5t108.5 177t39 216.5t-39 216t-109.5 177t-167 120t-208.5 44h-281v-1114z" />
<glyph unicode="E" horiz-adv-x="1208" d="M162 4v1495h870v-209h-653v-237v-123v-150h588v-205h-588v-356h668v-215h-885z" />
<glyph unicode="F" horiz-adv-x="1198" d="M162 0v1501h874v-211h-655v-207v-188v-117h559v-205h-559v-213v-360h-219z" />
<glyph unicode="G" horiz-adv-x="1808" d="M162 750q0 156 58.5 292t158.5 237t236.5 160.5t289.5 59.5q117 0 222.5 -33.5t193.5 -95t156.5 -146.5t111.5 -186h-252q-68 115 -181.5 184.5t-250.5 69.5q-106 0 -200.5 -43t-164 -116.5t-110.5 -172t-41 -210.5q0 -113 41 -211.5t110.5 -172t164 -116.5t200.5 -43 q92 0 176 32.5t150.5 91t113 138.5t64.5 172h-524v193h528h229q2 -23 3.5 -43.5t1.5 -40.5q0 -29 -2.5 -55.5t-6.5 -53.5q-18 -135 -82.5 -253t-162 -204t-222 -135t-266.5 -49q-154 0 -290 59.5t-236 161t-158.5 237.5t-58.5 292z" />
<glyph unicode="H" horiz-adv-x="1345" d="M162 2v1499h219v-260v-385v-192v-5h584v5v192v385v260h219v-1499h-219v268v197h-584v-197v-268h-219z" />
<glyph unicode="I" horiz-adv-x="542" d="M162 0v1501h219v-1501h-219z" />
<glyph unicode="J" horiz-adv-x="1028" d="M162 135l168 135q27 -29 60.5 -42t74.5 -13q39 0 72.5 14.5t59.5 40t40 60.5t14 73v1102h215v-1099q0 -84 -31.5 -158t-86 -129.5t-127 -87t-156.5 -31.5q-92 0 -170 35t-133 100z" />
<glyph unicode="K" horiz-adv-x="1335" d="M162 2v1499h217v-680l500 680h249l-426 -575l472 -924h-232l-377 739l-186 -249v-490h-217z" />
<glyph unicode="L" horiz-adv-x="1155" d="M162 -2v1503h219v-1288h612v-215h-831z" />
<glyph unicode="M" horiz-adv-x="1865" d="M162 -2l278 1503l492 -1034l493 1034l279 -1503h-223l-146 833l-403 -860l-402 860l-145 -833h-223z" />
<glyph unicode="N" horiz-adv-x="1501" d="M162 -4v1530l971 -1161v1134h206v-1503h-200l-770 948v-948h-207z" />
<glyph unicode="O" horiz-adv-x="1820" d="M162 750q0 158 58.5 296t159.5 240.5t237 161.5t292 59t293 -59t238.5 -161.5t160 -241t58.5 -295.5q0 -156 -58.5 -293.5t-160 -239.5t-238.5 -161.5t-293 -59.5t-292 59.5t-237 161.5t-159.5 239.5t-58.5 293.5zM391 750q0 -113 41 -212.5t111.5 -173t165 -116.5 t200.5 -43t201.5 43t166.5 116.5t112 173t41 212.5t-41 213t-112 174.5t-166 117.5t-202 43q-106 0 -200.5 -43t-165 -117.5t-111.5 -175t-41 -212.5z" />
<glyph unicode="P" horiz-adv-x="1378" d="M162 -2v1505h487q184 0 324 -88q80 -51 136 -124.5t85 -166.5q8 -23 10 -39q0 -6 2 -8q2 -12 3 -24.5t3 -22.5v-4q2 -12 3.5 -24.5t1.5 -26.5v-2v-2q0 -14 -1.5 -26.5t-3.5 -24.5v-2l-6 -50q-2 -2 -2 -8q-2 -10 -4 -18t-6 -19q-29 -94 -85 -167.5t-136 -125.5 q-68 -41 -150 -64.5t-174 -23.5h-268v-444h-219zM383 635h293q68 0 124 28.5t98 75.5t65.5 107.5t23.5 126.5t-23.5 126t-65.5 107t-98.5 76t-123.5 29h-293v-676z" />
<glyph unicode="Q" horiz-adv-x="1824" d="M162 750q0 156 59.5 293t160.5 238t237 160.5t292 59.5t293 -59.5t238.5 -160.5t161 -238.5t59.5 -292.5q0 -160 -61.5 -297.5t-167.5 -241.5h229v-211h-750h-2q-156 0 -292 59.5t-237 161t-160.5 237.5t-59.5 292zM373 750q0 -111 42 -209.5t115.5 -172t172 -115.5 t208.5 -42h7q111 0 208 43t169.5 116.5t114.5 171t42 208.5q0 113 -42 211t-115.5 171.5t-172 115.5t-211.5 42q-111 0 -209 -42t-171.5 -115.5t-115.5 -172t-42 -210.5z" />
<glyph unicode="R" horiz-adv-x="1376" d="M162 -2v1505h487q92 0 173 -23.5t149 -64.5q166 -104 223 -293q2 -10 4 -18t6 -19v-10q4 -10 5 -22.5t3 -24.5v-2q2 -12 2 -24.5v-26.5v-2v-4v-24.5t-2 -24.5v-5q-2 -12 -3 -23t-5 -24v-8q-8 -23 -10 -39q-29 -92 -85 -165.5t-138 -125.5q-4 -4 -10.5 -6t-10.5 -6 l264 -520h-231l-231 453q-25 -4 -49.5 -6.5t-53.5 -2.5h-268v-444h-219zM383 635h293q68 0 124 28.5t97 75.5t65.5 107.5t24.5 126.5q0 63 -24.5 124.5t-65.5 107.5t-97.5 75t-123.5 29h-293v-674z" />
<glyph unicode="S" horiz-adv-x="1296" d="M162 1077v29q10 117 71 207q57 86 147.5 136t201.5 50h133q111 0 202 -50t148 -136q6 -10 13 -22.5t14 -22.5l-187 -146q-18 74 -77.5 123t-137.5 49h-82q-41 0 -78.5 -14t-66.5 -40t-48.5 -60.5t-25.5 -73.5q-2 -8 -2 -16.5v-16.5q0 -45 16.5 -84t45 -68.5t67.5 -48 t82 -20.5h117h8q76 -2 142.5 -29.5t119.5 -74.5q14 -10 26.5 -23.5t22.5 -26.5q47 -59 74 -129.5t27 -148.5q0 -18 -2 -29q-6 -115 -70 -207q-57 -86 -147.5 -136t-200.5 -50h-135q-111 0 -201 50t-148 136q-16 25 -32 58l190 147q6 -39 25.5 -72.5t48.5 -59.5t65.5 -40 t77.5 -14h82q84 0 145.5 54t73.5 134q0 8 1 16.5t1 16.5q0 45 -16 84t-45 68.5t-68 48t-82 20.5h-116h-9q-76 2 -142 29.5t-120 75.5q-29 20 -49 49q-47 59 -73.5 129.5t-26.5 148.5z" />
<glyph unicode="T" horiz-adv-x="1282" d="M162 1292v209h958v-209h-370v-1290h-218v1290h-370z" />
<glyph unicode="U" horiz-adv-x="1335" d="M162 498v1003h215v-1003q0 -59 22.5 -111.5t61.5 -92.5t92 -62.5t113 -22.5q61 0 114.5 22.5t93 62.5t62 92t22.5 112v1003h216v-1003q0 -104 -40 -194.5t-110 -157t-162 -105.5t-198 -39q-104 0 -195.5 39t-160 105.5t-107.5 156.5t-39 195z" />
<glyph unicode="V" horiz-adv-x="1544" d="M162 1499h227l383 -942l383 942h227l-610 -1507z" />
<glyph unicode="W" horiz-adv-x="2152" d="M162 1503h227l383 -942l191 469l-191 473h225l80 -192l113 -281l190 -469l383 942h228l-611 -1507l-303 754l-305 -754z" />
<glyph unicode="X" horiz-adv-x="1308" d="M162 -2l377 752l-377 747v2h233l258 -518l260 518h234v-2l-377 -747l377 -752v-2h-232l-262 520l-260 -520h-231v2z" />
<glyph unicode="Y" horiz-adv-x="1472" d="M162 1501h2l-2 2h244l331 -803l332 803h242v-2l-465 -1012v-491v-2h-219v2v491z" />
<glyph unicode="Z" horiz-adv-x="1280" d="M162 -2l604 1292h-522v209v2h874l-2 -2h2l-610 -1286h608v-2v-213v-2h-954v2z" />
<glyph unicode="\" horiz-adv-x="1173" d="M162 1501h246l604 -1499h-246z" />
<glyph unicode="_" horiz-adv-x="1189" d="M162 -2h866v-227h-866v227z" />
<glyph unicode="a" horiz-adv-x="1386" d="M133 532q0 113 43 213.5t117 174t173 116.5t212 43t212 -43t174 -116.5t118 -174t43 -213.5v-530h-213v100q-70 -53 -154 -83.5t-180 -30.5q-113 0 -212 43t-173 116.5t-117 173t-43 211.5zM344 532q0 -68 26.5 -128t71.5 -105t105.5 -71.5t130.5 -26.5t130 26.5 t105 71.5t72 105.5t27 127.5q0 70 -27 130.5t-72 105.5t-105 71.5t-130 26.5t-130.5 -26.5t-105.5 -71.5t-71.5 -105.5t-26.5 -130.5z" />
<glyph unicode="b" horiz-adv-x="1404" d="M162 539v2v1261h209v-835q70 53 153.5 82.5t177.5 29.5q113 0 211.5 -42t172 -115.5t115.5 -172t42 -210.5q0 -113 -42 -211.5t-115.5 -172t-172 -115.5t-211.5 -42t-211 42t-171.5 115.5t-115.5 172t-42 211.5zM371 539q0 -68 26.5 -128.5t71.5 -105.5t105 -70.5 t128 -25.5t128.5 25.5t105.5 70.5t70.5 105.5t25.5 128.5t-25.5 128t-70.5 105t-105.5 70.5t-128.5 25.5t-128 -25.5t-105 -70.5t-71.5 -104.5t-26.5 -126.5v-2z" />
<glyph unicode="c" horiz-adv-x="1288" d="M162 541q0 111 42 209t115.5 171.5t172 115.5t208.5 42q131 0 242 -55t184 -152l-165 -129q-45 59 -113 93t-148 34q-68 0 -128 -25.5t-105 -70.5t-70.5 -105.5t-25.5 -127.5q0 -68 25.5 -128.5t70.5 -105.5t105 -71.5t128 -26.5q80 0 147.5 35t113.5 92l165 -129 q-74 -94 -184.5 -150.5t-241.5 -56.5q-111 0 -209 42t-171.5 115.5t-115.5 172t-42 211.5z" />
<glyph unicode="d" horiz-adv-x="1404" d="M162 539q0 113 42 211t115.5 171.5t172 115.5t210.5 42q94 0 177.5 -29.5t152.5 -82.5v835h211v-1261v-2q0 -113 -42 -211.5t-115.5 -172t-172 -115.5t-211.5 -42t-211 42t-171.5 115.5t-115.5 172t-42 211.5zM371 539q0 -68 26.5 -128.5t71.5 -105.5t105 -70.5 t128 -25.5t128.5 25.5t105.5 70.5t70.5 105.5t25.5 128.5v2q0 68 -25.5 127t-70.5 104t-105.5 70.5t-128.5 25.5t-128 -25.5t-105 -70.5t-71.5 -105.5t-26.5 -127.5z" />
<glyph unicode="e" horiz-adv-x="1404" d="M162 539q0 113 42 211t115.5 171.5t172 115.5t210.5 42q129 0 240 -56t184 -153q68 -82 99 -192q18 -66 18 -139q0 -37 -6 -70h-213h-233h-412q12 -55 42 -103.5t73 -83t96 -54t112 -19.5q72 0 134.5 28.5t109.5 79.5h39h209q-12 -31 -29.5 -58.5t-38.5 -53.5 q-74 -94 -184.5 -150.5t-239.5 -56.5q-113 0 -211 42t-171.5 115.5t-115.5 172t-42 211.5zM403 678h478h120q-10 16 -19 32.5t-19 30.5q-47 59 -115 93t-146 34q-100 0 -179 -52t-120 -138z" />
<glyph unicode="f" horiz-adv-x="866" d="M162 762v209h76v321v74q8 111 63 204t145 152v-2q55 37 121 57.5t138 20.5v-209q-53 0 -100.5 -20.5t-82.5 -55t-55.5 -82t-20.5 -100.5v-360h259v-209h-259v-154v-391v-219h-208v610v154h-76z" />
<glyph unicode="g" horiz-adv-x="1482" d="M162 55q0 86 44 147.5t111 98.5q-51 61 -79.5 138t-28.5 163q0 98 37 184t101.5 150.5t149.5 101.5t183 37h8h531v-211h-144q37 -57 57.5 -123.5t20.5 -138.5q0 -94 -35 -178t-94 -146.5t-141 -101.5t-174 -45h-29h-221q-33 -10 -58.5 -28.5t-25.5 -47.5q0 -35 29.5 -53 t64.5 -28.5t65 -12.5l31 -2h514q37 -2 79 -19.5t79 -54.5t60.5 -94t23.5 -139q0 -84 -24.5 -142.5t-61.5 -94.5t-80 -52t-80 -16h-510q-74 2 -145.5 20.5t-129 57t-93 96t-35.5 135.5h213q0 -33 29.5 -52.5t65.5 -28.5t66 -12l31 -3h504q39 4 39 92q0 31 -5 50t-12.5 29.5 t-13.5 13.5t-8 3h-506q-74 0 -145.5 18.5t-129 56.5t-93 95t-35.5 137zM420 602q0 -53 20.5 -101t55 -83t83 -55.5t101.5 -20.5q55 0 102 20.5t83 55.5t56.5 83t20.5 101t-20.5 101.5t-56.5 84t-83 56t-102 20.5q-53 0 -101.5 -20.5t-83 -56t-55 -84t-20.5 -101.5z" />
<glyph unicode="h" horiz-adv-x="1265" d="M162 -4v614v1198h211v-804q55 37 121.5 57t138.5 20t138.5 -20t121.5 -57q96 -63 153.5 -167t57.5 -227v-614h-211v221v393q0 53 -20.5 100.5t-56.5 83t-83 56t-100 20.5t-101.5 -20.5t-83 -56t-55 -82.5t-20.5 -101v-393v-221h-211z" />
<glyph unicode="i" horiz-adv-x="598" d="M195 0v1081h208v-1081h-208zM195 1192v209h208v-209h-208z" />
<glyph unicode="j" horiz-adv-x="598" d="M195 -651v1730h208v-1730h-208zM195 1192v209h208v-209h-208z" />
<glyph unicode="k" horiz-adv-x="1110" d="M162 2v490v223v362v697h209v-697v-293l4 -4l215 297h260l-346 -475l444 -606h-260l-313 430l-4 -4v-420h-209z" />
<glyph unicode="l" horiz-adv-x="598" d="M195 10v1788h208v-1788h-208z" />
<glyph unicode="m" horiz-adv-x="2000" d="M162 -2v616v471h211v-77q57 37 123.5 57t138.5 20t138.5 -20.5t121.5 -56.5q59 -39 106 -99q45 57 105 99q57 37 123.5 57t138.5 20t138.5 -20t121.5 -57q96 -63 153.5 -167t57.5 -227v-616h-211v221v395q0 53 -20.5 100.5t-56 83.5t-83 56t-100.5 20t-101 -20t-84 -56 t-56.5 -83t-20.5 -101v-395v-221h-211v221v395q0 53 -20.5 100.5t-56.5 83.5t-83 56t-100 20t-101.5 -20t-84 -56t-56 -83t-20.5 -101v-395v-221h-211z" />
<glyph unicode="n" horiz-adv-x="1269" d="M162 -2v616v473h213v-77q55 37 121.5 57t138.5 20t138.5 -20t121.5 -57q98 -66 155.5 -169.5t57.5 -226.5v-616h-213v223v393q0 53 -20.5 101.5t-56.5 84.5t-83 56.5t-100 20.5t-101.5 -20.5t-83 -56.5t-55 -84t-20.5 -102v-393v-223h-213z" />
<glyph unicode="o" horiz-adv-x="1404" d="M162 541q0 113 42 211t115.5 171.5t171.5 115.5t211 42t211.5 -42t172 -115.5t115.5 -172t42 -210.5q0 -113 -42 -211.5t-115.5 -172t-172 -115.5t-211.5 -42t-211 42t-171.5 115.5t-115.5 172t-42 211.5zM371 541q0 -68 26.5 -128.5t71.5 -105.5t105 -70.5t128 -25.5 t128.5 25.5t105.5 70.5t70.5 105.5t25.5 128.5t-25.5 128t-70.5 105t-105.5 70.5t-128.5 25.5t-128 -25.5t-105 -70.5t-71.5 -105.5t-26.5 -127.5z" />
<glyph unicode="p" horiz-adv-x="1409" d="M162 539v2q0 113 42 211t115.5 171.5t173 116.5t212.5 43t211 -43t171.5 -116.5t116.5 -172t43 -210.5q0 -113 -43 -211.5t-116.5 -172t-172 -116.5t-210.5 -43q-94 0 -178.5 30.5t-153.5 84.5v-840h-211v1266zM373 539q0 -68 26.5 -128.5t71.5 -105.5t105.5 -70.5 t128.5 -25.5t128 26.5t105 71.5t71.5 105.5t26.5 128.5t-26.5 128t-71.5 105t-105.5 71.5t-127.5 26.5q-70 0 -130.5 -26.5t-105.5 -71.5t-70.5 -105.5t-25.5 -127.5v-2z" />
<glyph unicode="q" horiz-adv-x="1409" d="M162 541q0 113 43 211t116.5 171.5t172 116.5t211.5 43t212 -43t172.5 -116.5t115.5 -172t42 -210.5v-2v-1268h-211v840q-70 -53 -153.5 -84t-177.5 -31q-113 0 -211.5 43t-172 116.5t-116.5 173t-43 212.5zM373 541q0 -70 26.5 -130.5t71.5 -105.5t105.5 -70.5 t128.5 -25.5t128 25.5t105 70.5t71.5 105.5t26.5 128.5v2q0 68 -25.5 128t-70.5 105t-105.5 71.5t-129.5 26.5q-68 0 -128.5 -26.5t-105.5 -71.5t-71.5 -105.5t-26.5 -127.5z" />
<glyph unicode="r" horiz-adv-x="1052" d="M162 2v608v467h209v-78q55 37 120.5 57.5t137.5 20.5t137.5 -20.5t120.5 -57.5q70 -45 119 -112l-119 -94l-45 -37q-35 51 -91.5 81.5t-121.5 30.5q-53 0 -100.5 -20.5t-82 -55t-55 -81.5t-20.5 -101v-389v-219h-209z" />
<glyph unicode="s" horiz-adv-x="980" d="M164 788q2 61 28.5 114.5t70.5 92.5q43 39 103 61q55 21 117 21h11q88 -4 158.5 -43t111.5 -104l-172 -119q-12 23 -40 39t-63 16h-7q-44 0 -74 -22q-34 -24 -33 -60q0 -10 2 -14q4 -23 20.5 -39t40.5 -26q39 -23 89.5 -46.5t101.5 -52.5q37 -16 73 -47l11 -10 q20 -18 45 -49q29 -42 45 -90q14 -43 14 -89v-12q-2 -68 -30.5 -125t-75.5 -100q-47 -42 -111 -66q-59 -22 -122 -22h-11q-98 4 -177 51t-120 125l176 123q10 -37 45 -62.5t82 -25.5h6q49 -1 87 29q40 32 40 79q0 14 -2 21v4q-2 4 -2 7t-2 7q-14 35 -53 58q-6 4 -19 8l2 2 q-29 16 -63.5 31.5t-70.5 33t-70.5 37t-65.5 45.5v2l-6 7q-44 41 -68 95q-23 50 -22 106v9z" />
<glyph unicode="t" horiz-adv-x="929" d="M162 1169v209h198v404h211v-404h197v-209h-197v-1171h-211v1171h-198z" />
<glyph unicode="u" horiz-adv-x="1261" d="M162 465v612h209v-221v-391q0 -53 20.5 -100.5t55 -82t83 -55t101.5 -20.5t100 20.5t83 55t56.5 82t20.5 100.5v391v221h209v-612q0 -123 -56.5 -225.5t-152.5 -165.5q-57 -37 -123 -57.5t-137 -20.5q-72 0 -137.5 20.5t-122.5 57.5q-94 63 -151.5 165.5t-57.5 225.5z " />
<glyph unicode="v" horiz-adv-x="1265" d="M162 1077h227l244 -557l244 557h227l-356 -817l-115 -262l-115 262z" />
<glyph unicode="w" horiz-adv-x="1753" d="M162 1083h231l246 -561l123 281l115 264l116 -264l123 -281l246 561h229l-360 -825l-115 -264l-117 264l-122 281l-123 -281l-115 -264l-115 264z" />
<glyph unicode="x" horiz-adv-x="1312" d="M162 1081h252l241 -362l244 362h252l-369 -551l355 -528h-252l-230 340l-227 -340h-252l354 528z" />
<glyph unicode="y" horiz-adv-x="1468" d="M162 1077h239l316 -719l346 719h244l-476 -985l-124 -260l-254 -528h-244l383 794z" />
<glyph unicode="z" horiz-adv-x="1280" d="M162 -2l129 209l405 663h-534v211h663h246v-2l-129 -209l-405 -663h534v-209h-663h-246z" />
<glyph unicode="|" horiz-adv-x="550" d="M162 -2v1505h227v-1505h-227z" />
<glyph unicode="&#xa1;" horiz-adv-x="540" d="M162 -4h217v1198h-217v-1198zM162 1286v217h217v-217h-217z" />
<glyph unicode="&#xad;" d="M162 426v227h551v-227h-551z" />
<glyph unicode="&#xbf;" horiz-adv-x="1253" d="M162 459q0 109 51 205t143 161l9 6q68 47 153 68v264h217v-229v-166v-41q-23 0 -47 -2q-23 -2 -49.5 -4t-52.5 -8q-2 -2 -6 -2q-16 -4 -32 -10.5t-30 -14.5q-63 -35 -101 -95.5t-38 -131.5q0 -53 21.5 -101.5t59.5 -83t89 -55t108 -20.5q92 0 164 50t101 128l170 -129 q-63 -113 -179 -180.5t-258 -67.5q-102 0 -192 36t-156.5 98.5t-105.5 145.5t-39 179zM518 1395q0 45 32 76.5t77 31.5t76.5 -31.5t31.5 -76.5t-31.5 -77t-76.5 -32t-77 32t-32 77z" />
<glyph unicode="&#xff;" horiz-adv-x="1705" />
<glyph unicode="&#x2000;" horiz-adv-x="904" />
<glyph unicode="&#x2001;" horiz-adv-x="1808" />
<glyph unicode="&#x2002;" horiz-adv-x="904" />
<glyph unicode="&#x2003;" horiz-adv-x="1808" />
<glyph unicode="&#x2004;" horiz-adv-x="602" />
<glyph unicode="&#x2005;" horiz-adv-x="452" />
<glyph unicode="&#x2006;" horiz-adv-x="301" />
<glyph unicode="&#x2007;" horiz-adv-x="301" />
<glyph unicode="&#x2008;" horiz-adv-x="226" />
<glyph unicode="&#x2009;" horiz-adv-x="361" />
<glyph unicode="&#x200a;" horiz-adv-x="100" />
<glyph unicode="&#x2010;" d="M162 426v227h551v-227h-551z" />
<glyph unicode="&#x2011;" d="M162 426v227h551v-227h-551z" />
<glyph unicode="&#x2012;" d="M162 426v227h551v-227h-551z" />
<glyph unicode="&#x2013;" d="M162 426v227h551v-227h-551z" />
<glyph unicode="&#x2014;" horiz-adv-x="1189" d="M162 428v227h866v-227h-866z" />
<glyph unicode="&#x202f;" horiz-adv-x="361" />
<glyph unicode="&#x205f;" horiz-adv-x="452" />
<glyph unicode="&#x25fc;" horiz-adv-x="1085" d="M0 0v1085h1085v-1085h-1085z" />
</font>
</defs>
</svg>
